<svg width="368" height="484" viewBox="0 0 368 484" fill="none" xmlns="http://www.w3.org/2000/svg">
<path d="M18.9631 420.536C-0.640906 392.519 6.2521 362.369 10.7391 330.884L33.8671 168.614C37.4951 143.148 34.9971 103.814 63.4531 92.0559C92.5521 80.0329 115.51 114.393 133.162 132.045C142.877 141.76 152.866 152.632 167.852 145.506C179.875 139.788 179.223 121.548 180.818 110.353L188.232 58.3269C189.659 48.3129 190.095 37.272 194.837 28.135C205.133 8.29197 230.837 -1.48305 251.058 9.77296C259.875 14.682 266.843 23.717 273.915 30.789C283.852 40.726 295.562 50.285 304.138 61.421C324.919 88.406 318.446 118.979 314.007 150.135L290.526 314.883C286.893 340.379 289.295 379.526 260.942 391.443C232.139 403.548 208.711 368.933 191.231 351.452C181.827 342.049 171.021 330.029 156.421 337.872C144.802 344.114 145.367 360.542 143.748 371.902L136.16 425.17C134.736 435.161 134.327 446.258 129.555 455.362C118.655 476.163 92.1381 485.082 71.6361 472.592C63.0761 467.379 56.1161 458.347 49.0631 451.293C39.2651 441.495 26.9121 431.898 18.9631 420.536Z" fill="#FF0016" stroke="#FF0016" stroke-width="10"/>
<path d="M62.945 420.527C43.345 392.513 50.256 362.381 54.759 330.913L77.973 168.729C81.616 143.277 79.134 103.96 107.609 92.221C136.727 80.217 159.68 114.572 177.332 132.223C187.047 141.938 197.036 152.81 212.032 145.694C224.064 139.985 223.419 121.753 225.021 110.565L232.462 58.566C233.895 48.557 234.336 37.522 239.084 28.3909C249.394 8.56193 275.115 -1.19603 295.34 10.064C304.159 14.975 311.126 24.009 318.198 31.0809C328.135 41.018 339.846 50.578 348.421 61.713C369.198 88.695 362.709 119.251 358.253 150.39L334.684 315.05C331.037 340.532 333.422 379.663 305.05 391.56C276.228 403.646 252.806 369.036 235.325 351.556C225.922 342.152 215.116 330.133 200.506 337.965C188.878 344.199 189.436 360.62 187.811 371.974L180.195 425.213C178.765 435.199 178.35 446.29 173.573 455.388C162.658 476.174 136.124 485.076 115.618 472.583C107.057 467.368 100.098 458.337 93.044 451.283C83.247 441.486 70.892 431.887 62.945 420.527Z" fill="#56C7D2" stroke="#56C7D2" stroke-width="10"/>
<path d="M40.948 420.525C21.348 392.511 28.259 362.379 32.762 330.911L55.977 168.727C59.619 143.274 57.138 103.958 85.613 92.2179C114.73 80.215 137.684 114.569 155.335 132.221C165.05 141.936 175.039 152.808 190.035 145.692C202.067 139.982 201.423 121.751 203.024 110.562L210.466 58.563C211.898 48.555 212.339 37.519 217.087 28.388C227.398 8.55896 253.119 -1.19901 273.344 10.062C282.163 14.972 289.13 24.007 296.201 31.078C306.138 41.015 317.85 50.576 326.424 61.71C347.202 88.6919 340.712 119.248 336.256 150.387L312.687 315.048C309.041 340.53 311.426 379.66 283.054 391.558C254.232 403.644 230.809 369.034 213.329 351.553C203.925 342.15 193.12 330.13 178.509 337.963C166.882 344.197 167.44 360.617 165.815 371.971L158.198 425.211C156.769 435.197 156.354 446.288 151.576 455.385C140.661 476.172 114.128 485.074 93.621 472.581C85.061 467.366 78.102 458.334 71.048 451.281C61.25 441.483 48.896 431.884 40.948 420.525Z" fill="#17232E" stroke="#17232E" stroke-width="10"/>
</svg>
